<svg width="800" height="800" viewBox="0 0 800 800" fill="none" xmlns="http://www.w3.org/2000/svg">
<path d="M621.406 264.703H542.933L521.656 222.266H521.65C519.569 218.134 515.339 215.515 510.707 215.503H412.305V127.19C423.334 123.29 431.861 114.385 435.291 103.198C438.715 92.0105 436.628 79.8639 429.67 70.453C422.712 61.0475 411.707 55.4994 400.007 55.4994C388.307 55.4994 377.296 61.0475 370.338 70.453C363.38 79.8645 361.299 92.0108 364.723 103.198C368.147 114.386 376.674 123.29 387.703 127.19V215.503H289.301C284.675 215.515 280.439 218.134 278.357 222.266L257.081 264.703H178.601C171.808 264.703 166.303 270.208 166.303 277.002V326.202C166.303 329.467 167.597 332.592 169.904 334.899C172.211 337.206 175.342 338.5 178.601 338.5H193.61L240.107 523L229.895 584.499H215.503C208.71 584.499 203.205 590.004 203.205 596.797V645.997C203.205 649.263 204.499 652.388 206.806 654.695C209.113 657.002 212.244 658.302 215.503 658.302H277.002V732.099C277.002 738.892 282.507 744.398 289.3 744.398C296.094 744.398 301.605 738.892 301.605 732.099V658.302H498.402V732.099C498.402 738.892 503.907 744.398 510.701 744.398C517.494 744.398 522.999 738.892 522.999 732.099V658.302H584.498C587.763 658.302 590.888 657.002 593.195 654.695C595.502 652.388 596.796 649.263 596.796 645.997V596.797C596.796 593.538 595.502 590.407 593.195 588.1C590.888 585.799 587.763 584.499 584.498 584.499H570.356L559.9 523L606.147 338.5H621.4C624.659 338.5 627.79 337.206 630.097 334.899C632.405 332.592 633.699 329.467 633.699 326.202V277.002C633.699 273.742 632.405 270.611 630.097 268.304C627.79 265.997 624.659 264.703 621.4 264.703H621.406ZM400 80.2031C404.974 80.2031 409.46 83.2 411.359 87.7959C413.263 92.398 412.213 97.6836 408.697 101.205C405.176 104.721 399.884 105.771 395.288 103.872C390.692 101.968 387.695 97.4822 387.695 92.5078C387.695 85.7145 393.207 80.2031 400 80.2031ZM296.923 240.109H503.064L515.363 264.706H284.613L296.923 240.109ZM261.994 510.703L218.945 338.5L387.695 338.494V510.697L261.994 510.703ZM572.197 633.702H227.791V609.105H572.197V633.702ZM254.619 584.502L262.858 535.302H537.155L545.395 584.502H254.619ZM537.509 510.705H412.295V338.502H581.045L537.509 510.705ZM609.097 313.908H190.894V289.305H609.097V313.908Z" fill="white"/>
</svg>
